<svg width="37" height="36" viewBox="0 0 37 36" fill="none" xmlns="http://www.w3.org/2000/svg">
<path d="M26.1566 35.9993V20.5551H30.7929V15.544H26.1566C25.6256 11.5887 27.3368 11.5384 30.7929 11.7898V6.35961H24.6899C24.4707 6.35961 21.8913 7.56631 21.5457 7.83447C19.2022 9.6529 19.3034 12.8875 19.4298 15.544H15.215V20.5551H19.4298V35.3708L18.7976 35.9993H4.47573C1.93842 35.9993 0.724555 33.8624 0.471667 31.6166C-0.21956 25.4574 -0.101546 11.5803 0.454808 5.30374C0.741414 2.16966 1.63495 0.87916 4.8972 0.518825C11.27 -0.185086 24.4623 0.0244113 31.0121 0.502065C35.0499 0.795361 35.9265 1.68363 36.2722 5.72273C36.8032 11.949 36.9044 25.03 36.2047 31.1473C35.9603 33.3177 34.915 35.9993 32.2597 35.9993H26.1566Z" fill="white"/>
</svg>
