<svg width="47" height="47" viewBox="0 0 47 47" fill="none" xmlns="http://www.w3.org/2000/svg">
<g clip-path="url(#clip0_310_225)">
<path d="M12.2779 5.06366H34.5958C34.2468 1.77569 36.0606 -0.882226 39.7569 0.438562C41.0692 1.65901 40.9537 3.43484 40.8898 5.06832C43.6842 4.82097 46.2229 4.94698 46.6456 8.02726C45.7093 19.1956 47.786 31.9111 46.6481 42.8858C46.3261 45.9918 44.7926 46.1504 41.7721 46.4095C32.6346 47.1935 14.2318 47.2005 5.09915 46.4095C3.85559 46.3021 1.55769 46.0501 0.776157 45.0793C-1.05233 42.8041 0.999802 12.237 0.378018 7.08218C1.48887 4.75796 3.63931 4.91898 5.98391 5.06832C4.92466 -1.94166 12.8874 -1.42828 12.2779 5.06366ZM10.56 11.0445V2.07205C10.56 1.04762 7.69934 1.04762 7.69934 2.07205V10.7715L8.6185 11.5486L10.5625 11.0445H10.56ZM36.3137 11.0445L38.2577 11.5486L39.1769 10.7715V2.07205C39.1769 1.04762 36.3162 1.04762 36.3162 2.07205V11.0445H36.3137ZM1.40286 14.8506H45.4709C45.2177 11.3479 47.0241 6.36344 41.7598 6.13242C40.563 6.08108 41.0078 6.13709 40.8898 6.94683C40.6686 8.45664 41.2683 10.2488 40.3664 11.7679C39.7397 12.7037 37.3213 12.9417 36.3137 12.412C34.1927 10.8555 34.5442 8.4403 34.6007 6.14642H12.273C13.5436 14.8412 4.37169 15.3919 5.97653 6.14642C-0.374021 5.64238 1.69286 10.6035 1.40286 14.8506ZM45.4709 16.4817H1.40286V42.8531C1.40286 43.0072 2.29007 44.3349 2.54812 44.4843L44.3477 44.503C44.5689 44.3606 45.4733 42.4938 45.4733 42.3094V16.4817H45.4709Z" fill="white"/>
<path d="M31.7385 27.354V33.3419H26.0098V27.354H31.7385ZM30.5957 28.4414H27.155L27.1575 32.2521L30.3426 31.7411L30.5957 28.4414Z" fill="white"/>
<path d="M11.135 27.354V33.3419H5.40625V27.354H11.135ZM9.98976 28.4414H6.54905L7.08728 32.0118L9.98484 32.2521V28.4414H9.98976Z" fill="white"/>
<path d="M20.8655 27.354V33.3419H15.1367V27.354H20.8655ZM19.7202 28.4414H16.2795L16.8177 32.0118L19.7153 32.2521V28.4414H19.7202Z" fill="white"/>
<path d="M41.4671 27.354V33.3419H35.7383V27.354H41.4671ZM40.3218 28.4414H36.8811L36.8835 32.2521L40.0687 31.7411L40.3218 28.4414Z" fill="white"/>
<path d="M31.7385 36.5972V42.0413H26.0098V36.5972H31.7385ZM30.5957 37.6893H27.1575L27.2312 40.3425L30.0403 40.7205L30.5982 37.6893H30.5957Z" fill="white"/>
<path d="M20.8655 36.5972V42.0413H15.1367V36.5972H20.8655ZM19.7202 37.6869H16.282L16.8399 40.7205L19.649 40.3425L19.7227 37.6893L19.7202 37.6869Z" fill="white"/>
<path d="M31.7385 18.6543V24.0985H26.0098V18.6543H31.7385ZM27.1575 23.0087L30.3451 22.5023V20.2481L27.1575 19.7417V23.0087Z" fill="white"/>
<path d="M11.135 36.5972V42.0413H5.40625V36.5972H11.135ZM9.98976 37.6893H6.55151L7.08482 40.7182H9.45891L9.99222 37.6893H9.98976Z" fill="white"/>
<path d="M20.8655 18.6543V24.0985H15.1367V18.6543H20.8655ZM19.7202 19.7417H16.2795L16.5327 22.4977L19.7153 23.0087V19.7417H19.7202Z" fill="white"/>
<path d="M41.4671 18.6543V24.0985H35.7383V18.6543H41.4671ZM40.3218 19.7417H36.8811V23.011H40.3218V19.7417Z" fill="white"/>
</g>
<defs>
<clipPath id="clip0_310_225">
<rect width="47" height="47" fill="white"/>
</clipPath>
</defs>
</svg>
