<?xml version="1.0" encoding="UTF-8"?>
<svg id="Layer_1" xmlns="http://www.w3.org/2000/svg" version="1.1" viewBox="0 0 529.6 529.6">
  <!-- Generator: Adobe Illustrator 29.3.1, SVG Export Plug-In . SVG Version: 2.1.0 Build 151)  -->
  <defs>
    <style>
      .st0 {
        fill: #fff;
      }
    </style>
  </defs>
  <path class="st0" d="M451.2,451.2h-78.5v-122.9c0-29.3-.5-67-40.8-67s-47.1,31.9-47.1,64.9v125h-78.5v-252.7h75.3v34.5h1.1c15.4-26.3,43.9-41.9,74.3-40.8,79.5,0,94.2,52.3,94.2,120.4v138.6ZM117.8,164c-25.1,0-45.5-20.4-45.5-45.5,0-25.1,20.4-45.5,45.5-45.5,25.1,0,45.5,20.4,45.5,45.5s-20.4,45.5-45.5,45.5h0M157.1,451.2h-78.6v-252.7h78.6v252.7ZM490.4,0H39.1C17.8-.2.3,16.9,0,38.2v453.2c.3,21.3,17.7,38.4,39.1,38.2h451.3c21.4.3,38.9-16.8,39.2-38.2V38.2C529.3,16.8,511.7-.3,490.4,0"/>
  <text/>
  <text/>
  <text/>
  <text/>
</svg>