<svg width="35" height="30" viewBox="0 0 35 30" fill="none" xmlns="http://www.w3.org/2000/svg">
<path d="M33.3055 1.70032L31.2065 5.03552L34.1485 4.82602C33.609 6.18356 31.333 7.24781 30.9705 8.34557C30.5322 9.66121 30.9452 11.2283 30.6755 12.6445C28.0539 26.7394 12.6193 33.9126 0.0591724 26.731C-0.0672715 26.1361 0.531231 26.2869 0.96957 26.1864C4.06323 25.4741 7.1316 25.5327 9.73635 23.1864C6.92086 22.9601 3.66704 21.0327 3.43101 17.9741H5.95145C2.87465 17.2115 0.657674 14.4964 0.902132 11.2953L3.42257 11.7059C0.56494 9.083 0.430075 6.1249 1.32361 2.52993C1.82096 2.0858 4.32455 4.90982 4.97363 5.37909C8.3539 7.84278 12.2146 9.51038 16.48 9.6277C15.6708 4.22267 19.8266 -0.193534 25.4322 0.954511C26.6714 1.20591 28.4753 2.87351 29.3014 2.9154C30.5153 2.97406 31.9568 1.50758 33.3139 1.69194L33.3055 1.70032Z" fill="white"/>
</svg>
