<svg width="46" height="46" viewBox="0 0 46 46" fill="none" xmlns="http://www.w3.org/2000/svg">
<g clip-path="url(#clip0_310_193)">
<path d="M37.6951 5.84502C57.9348 23.6967 37.8141 54.2421 13.4065 43.924C9.52474 42.2825 3.58535 36.1871 1.96489 32.4823C-7.42371 11.0394 18.9088 -10.7247 37.6951 5.84502ZM33.8156 5.15586C20.0509 -3.47355 3.14361 7.56362 2.25327 21.9695C1.24392 38.2973 21.1678 50.6422 35.4796 39.5066C47.0814 30.4791 46.4818 13.0961 33.8156 5.15586Z" fill="white"/>
<path d="M24.2062 12.5096V21.6869H30.5644L30.5622 24.3857H21.8945V12.5096C21.8945 12.4025 23.7919 12.5823 24.2062 12.5096Z" fill="white"/>
<path d="M8.60881 21.6826H5.13672V24.3879H8.60881V21.6826Z" fill="white"/>
<path d="M40.9643 21.6826H37.4922V24.3879H40.9643V21.6826Z" fill="white"/>
<path d="M9.52832 13.8261C13.964 16.2702 6.6948 19.0461 7.45239 13.0513C8.40681 12.8266 8.85313 13.4537 9.52832 13.8261Z" fill="white"/>
<path d="M38.6479 13.0511C39.9525 16.3128 34.7112 18.3225 35.1735 14.988C35.201 14.7975 38.1306 12.5246 38.6479 13.0511Z" fill="white"/>
<path d="M24.2045 4.95008C24.0169 7.50766 25.3672 9.33542 21.8997 8.73401C22.0874 6.17644 20.737 4.34868 24.2045 4.95008Z" fill="white"/>
<path d="M10.7726 31.3053C10.7108 31.4723 7.89098 33.4991 7.45383 33.0197C5.98214 29.5889 12.0085 27.9195 10.7726 31.3053Z" fill="white"/>
<path d="M38.5221 30.4384C38.9272 31.1019 38.5587 32.2298 38.6503 33.0174C38.1444 33.5503 35.2033 31.2731 35.1759 31.0805C34.812 28.4502 37.9362 29.4775 38.5221 30.4363V30.4384Z" fill="white"/>
<path d="M14.4106 10.8681C13.8269 10.4743 11.9067 5.92845 15.5412 7.91887C17.7362 9.11954 15.9921 11.9361 14.4106 10.8681Z" fill="white"/>
<path d="M32.8704 7.65353C33.0421 7.79907 32.09 11.5274 30.2795 10.8831C27.858 10.0228 31.4125 6.41862 32.8704 7.65353Z" fill="white"/>
<path d="M15.414 38.2928C11.9374 40.0713 13.8989 35.5276 14.4116 35.2001C16.3639 33.9459 17.3481 37.304 15.414 38.2928Z" fill="white"/>
<path d="M31.6916 35.2005C32.2684 35.5921 34.12 40.0481 30.6891 38.2931C28.7116 37.2829 29.808 33.927 31.6916 35.2005Z" fill="white"/>
<path d="M24.2029 37.3384C25.1596 42.0683 20.9414 42.0683 21.8981 37.3384H24.2029Z" fill="white"/>
</g>
<defs>
<clipPath id="clip0_310_193">
<rect width="46" height="46" fill="white"/>
</clipPath>
</defs>
</svg>
