<?xml version="1.0" encoding="UTF-8"?>
<svg id="Capa_1" xmlns="http://www.w3.org/2000/svg" xmlns:xlink="http://www.w3.org/1999/xlink" version="1.1" viewBox="0 0 800 587.7">
  <!-- Generator: Adobe Illustrator 29.3.1, SVG Export Plug-In . SVG Version: 2.1.0 Build 151)  -->
  <defs>
    <style>
      .st0 {
        fill: #fff;
      }
    </style>
  </defs>
  <path class="st0" d="M640.9,0H159.1C71.4,0,0,71.6,0,159.6v268.6c0,88,71.4,159.6,159.1,159.6h481.8c87.7,0,159.1-71.6,159.1-159.6V159.6C800,71.6,728.6,0,640.9,0ZM767.3,428.2c0,70-56.7,126.9-126.4,126.9H159.1c-69.7,0-126.4-56.9-126.4-126.9V159.6c0-70,56.7-126.9,126.4-126.9h481.8c69.7,0,126.4,56.9,126.4,126.9v268.6Z"/>
  <path class="st0" d="M544.7,288l-226.2-132.5c-5-2.9-11.3-3-16.4,0-5.1,2.9-8.2,8.3-8.2,14.2v265c0,5.8,3.1,11.3,8.2,14.2,2.5,1.4,5.3,2.2,8.1,2.2s5.7-.8,8.2-2.2l226.2-132.5c5-2.9,8.1-8.3,8.1-14.1s-3.1-11.2-8.1-14.1ZM326.5,406v-208l177.6,104-177.6,104Z"/>
</svg>